# xmcd
#
# Track frame offsets: 
#        150
#        16897
#        34290
#        51235
#        69892
#        91240
#        106212
#        123010
#        139535
#        156365
#
# Disc length: 2301 seconds
#
# Revision: 5
# Processed by: cddbd v1.5.2PL0 Copyright (c) Steve Scherf et al.
# Submitted via: ExactAudioCopy v1.0b3
#
DISCID=7708fb0a
DTITLE=Monica - The Makings Of Me
DYEAR=2006
DGENRE=R&B
TTITLE0=Everytime Tha Beat Drop (feat. Dem Franchize Boyz)
TTITLE1=A Dozen Roses (You Remind Me)
TTITLE2=Sideline Ho
TTITLE3=Why Her?
TTITLE4=Hell No (Leave Home) [feat. Twista]
TTITLE5=Doin' Me Right
TTITLE6=Raw (feat. Swizz Beatz)
TTITLE7=My Everything
TTITLE8=Gotta Move On
TTITLE9=Getaway
EXTD=YEAR: 2006
EXTT0=
EXTT1=
EXTT2=
EXTT3=
EXTT4=
EXTT5=
EXTT6=
EXTT7=
EXTT8=
EXTT9=
PLAYORDER=
